<svg width="54" height="54" viewBox="0 0 54 54" fill="none" xmlns="http://www.w3.org/2000/svg">
<rect width="54" height="54" rx="27" fill="#00005B" fill-opacity="0.05"/>
<path fill-rule="evenodd" clip-rule="evenodd" d="M33.0431 18.145C33.0431 16.5934 34.3031 15.3334 35.8547 15.3334C37.4064 15.3334 38.6664 16.5934 38.6664 18.145C38.6664 19.6967 37.4064 20.9567 35.8547 20.9567C34.3031 20.9567 33.0431 19.6967 33.0431 18.145ZM28.5513 30.2192L31.923 25.8687L31.8763 25.8921C32.063 25.6354 32.098 25.3087 31.9697 25.0171C31.8425 24.7254 31.5613 24.5271 31.2592 24.5037C30.943 24.4687 30.6292 24.6087 30.4413 24.8654L27.6192 28.5171L24.3863 25.9737C24.188 25.8221 23.9547 25.7626 23.7213 25.7871C23.4892 25.8221 23.2792 25.9492 23.138 26.1359L19.6858 30.6287L19.6147 30.7337C19.4163 31.1059 19.5097 31.5842 19.8597 31.8421C20.023 31.9471 20.198 32.0171 20.3963 32.0171C20.6658 32.0287 20.9213 31.8876 21.0847 31.6671L24.013 27.8976L27.338 30.3954L27.443 30.4642C27.8163 30.6626 28.283 30.5704 28.5513 30.2192ZM31.0247 17.4104C30.978 17.702 30.9547 17.9937 30.9547 18.2854C30.9547 20.9104 33.078 23.0325 35.6913 23.0325C35.983 23.0325 36.263 22.9987 36.5547 22.952V32.3659C36.5547 36.322 34.2213 38.667 30.2547 38.667H21.6342C17.6663 38.667 15.333 36.322 15.333 32.3659V23.7337C15.333 19.767 17.6663 17.4104 21.6342 17.4104H31.0247Z" fill="#00005B"/>
</svg>
