<svg width="54" height="54" viewBox="0 0 54 54" fill="none" xmlns="http://www.w3.org/2000/svg">
<rect width="54" height="54" rx="27" fill="#00005B" fill-opacity="0.05"/>
<path fill-rule="evenodd" clip-rule="evenodd" d="M33.7304 22.7788H38.6667C38.6667 18.8154 36.2919 16.5 32.2682 16.5H21.7319C17.7082 16.5 15.3334 18.8154 15.3334 22.7282V31.2718C15.3334 35.1846 17.7082 37.5 21.7319 37.5H32.2682C36.2919 37.5 38.6667 35.1846 38.6667 31.2718V30.9078H33.7304C31.4395 30.9078 29.5823 29.0971 29.5823 26.8635C29.5823 24.6299 31.4395 22.8192 33.7304 22.8192V22.7788ZM33.7304 24.5178H37.7955C38.2766 24.5178 38.6667 24.8981 38.6667 25.3671V28.3195C38.6611 28.7863 38.2743 29.1633 37.7955 29.1688H33.8237C32.6639 29.184 31.6497 28.4098 31.3867 27.3084C31.2549 26.6247 31.4399 25.9192 31.8919 25.3809C32.344 24.8427 33.0169 24.5268 33.7304 24.5178ZM33.9066 27.6219H34.2903C34.7829 27.6219 35.1822 27.2326 35.1822 26.7524C35.1822 26.2721 34.7829 25.8828 34.2903 25.8828H33.9066C33.6711 25.8801 33.4442 25.9695 33.2766 26.1309C33.109 26.2924 33.0148 26.5126 33.0148 26.7422C33.0147 27.2241 33.4124 27.6163 33.9066 27.6219ZM20.8608 22.7788H27.446C27.9385 22.7788 28.3378 22.3895 28.3378 21.9093C28.3378 21.4291 27.9385 21.0398 27.446 21.0398H20.8608C20.3723 21.0397 19.9746 21.4229 19.969 21.8992C19.9689 22.3811 20.3666 22.7733 20.8608 22.7788Z" fill="#00005B"/>
</svg>
