<svg width="54" height="54" viewBox="0 0 54 54" fill="none" xmlns="http://www.w3.org/2000/svg">
<rect width="54" height="54" rx="27" fill="#00005B" fill-opacity="0.05"/>
<path fill-rule="evenodd" clip-rule="evenodd" d="M29.2697 28.0383C29.6047 28.3767 30.1476 28.3767 30.4826 28.0383C30.8291 27.7 30.8291 27.1517 30.4942 26.8133L27.179 23.4533C27.0981 23.3717 27.0057 23.3133 26.9017 23.2667C26.7978 23.22 26.6938 23.1967 26.5783 23.1967C26.4628 23.1967 26.3473 23.22 26.2433 23.2667C26.1394 23.3133 26.047 23.3717 25.9661 23.4533L22.6625 26.8133C22.3275 27.1517 22.3275 27.7 22.6625 28.0383C22.9975 28.3767 23.5404 28.3767 23.8753 28.0383L25.712 26.1717V31.8067C25.712 32.285 26.0932 32.67 26.5783 32.67C27.0519 32.67 27.4331 32.285 27.4331 31.8067V26.1717L29.2697 28.0383ZM35.5496 23.5299C35.8211 23.5268 36.1167 23.5234 36.3854 23.5234C36.6741 23.5234 36.9167 23.7567 36.9167 24.0484V33.4284C36.9167 36.3217 34.5834 38.6667 31.7187 38.6667H22.5355C19.5207 38.6667 17.0834 36.205 17.0834 33.1717V20.595C17.0834 17.7017 19.4052 15.3334 22.2929 15.3334H28.4613C28.75 15.3334 28.9926 15.5784 28.9926 15.87V19.6267C28.9926 21.7617 30.7253 23.5117 32.8507 23.5234C33.3365 23.5234 33.7679 23.527 34.1468 23.5303C34.4435 23.5328 34.7081 23.535 34.9415 23.535C35.1059 23.535 35.319 23.5326 35.5496 23.5299ZM35.8721 21.827C34.9226 21.8305 33.8045 21.827 32.9993 21.8188C31.7218 21.8188 30.6695 20.756 30.6695 19.4657V16.3903C30.6695 15.8875 31.2724 15.6378 31.6178 16.0007C32.5078 16.9344 33.8704 18.3657 35.0217 19.575C35.4873 20.064 35.9183 20.5167 36.2695 20.8855C36.6056 21.239 36.3584 21.8258 35.8721 21.827Z" fill="#00005B"/>
</svg>
