<svg width="25" height="24" viewBox="0 0 25 24" fill="none" xmlns="http://www.w3.org/2000/svg">
<path fill-rule="evenodd" clip-rule="evenodd" d="M14.5705 12.89C14.8577 13.18 15.323 13.18 15.6101 12.89C15.9072 12.6 15.9072 12.13 15.62 11.84L12.7785 8.96C12.7092 8.89 12.63 8.84 12.5408 8.8C12.4517 8.76 12.3626 8.74 12.2636 8.74C12.1646 8.74 12.0656 8.76 11.9765 8.8C11.8874 8.84 11.8082 8.89 11.7389 8.96L8.90718 11.84C8.62005 12.13 8.62005 12.6 8.90718 12.89C9.19431 13.18 9.65965 13.18 9.94678 12.89L11.521 11.29V16.12C11.521 16.53 11.8478 16.86 12.2636 16.86C12.6696 16.86 12.9963 16.53 12.9963 16.12V11.29L14.5705 12.89ZM19.9532 9.02561C20.1859 9.02292 20.4393 9.02 20.6696 9.02C20.9171 9.02 21.125 9.22 21.125 9.47V17.51C21.125 19.99 19.125 22 16.6696 22H8.79827C6.21411 22 4.125 19.89 4.125 17.29V6.51C4.125 4.03 6.1151 2 8.59035 2H13.8775C14.125 2 14.3329 2.21 14.3329 2.46V5.68C14.3329 7.51 15.8181 9.01 17.6399 9.02C18.0563 9.02 18.426 9.02315 18.7508 9.02591C19.0051 9.02807 19.2319 9.03 19.4319 9.03C19.5729 9.03 19.7556 9.02789 19.9532 9.02561ZM20.2297 7.566C19.4158 7.569 18.4574 7.566 17.7673 7.559C16.6722 7.559 15.7702 6.648 15.7702 5.542V2.906C15.7702 2.475 16.2871 2.261 16.5831 2.572C17.3454 3.37179 18.5122 4.59739 19.4986 5.63346C19.8985 6.05345 20.2687 6.44229 20.5702 6.759C20.8584 7.062 20.6465 7.565 20.2297 7.566Z" fill="#00005B"/>
</svg>
