<svg width="38" height="38" viewBox="0 0 38 38" fill="none" xmlns="http://www.w3.org/2000/svg">
<g filter="url(#filter0_b_105_988)">
<rect width="38" height="38" rx="19" fill="#FAFAFA" fill-opacity="1"/>
<rect width="38" height="38" rx="19" fill="#0D0D0D" style="mix-blend-mode:color-dodge"/>
<rect x="0.5" y="0.5" width="37" height="37" rx="18.5" stroke="#F3F5F7"/>
<path fill-rule="evenodd" clip-rule="evenodd" d="M25.1482 16.0633C25.1482 17.2146 25.4525 17.8931 26.1221 18.6751C26.6295 19.2512 26.7917 19.9907 26.7917 20.793C26.7917 21.5944 26.5284 22.3551 26.0009 22.9727C25.3104 23.7132 24.3365 24.1859 23.3425 24.268C21.9022 24.3908 20.4609 24.4942 19.0005 24.4942C17.5392 24.4942 16.0988 24.4324 14.6585 24.268C13.6636 24.1859 12.6897 23.7132 12.0001 22.9727C11.4726 22.3551 11.2084 21.5944 11.2084 20.793C11.2084 19.9907 11.3715 19.2512 11.878 18.6751C12.5686 17.8931 12.8528 17.2146 12.8528 16.0633V15.6728C12.8528 14.131 13.2373 13.1228 14.029 12.1359C15.206 10.6965 17.0928 9.83331 18.9595 9.83331H19.0415C20.9483 9.83331 22.8961 10.7381 24.0531 12.2393C24.8038 13.2059 25.1482 14.1716 25.1482 15.6728V16.0633ZM16.3176 26.389C16.3176 25.9274 16.7412 25.716 17.133 25.6255C17.5912 25.5286 20.3836 25.5286 20.8418 25.6255C21.2336 25.716 21.6572 25.9274 21.6572 26.389C21.6344 26.8285 21.3766 27.2181 21.0204 27.4655C20.5585 27.8256 20.0164 28.0536 19.4497 28.1358C19.1363 28.1764 18.8284 28.1773 18.5259 28.1358C17.9584 28.0536 17.4163 27.8256 16.9553 27.4646C16.5982 27.2181 16.3404 26.8285 16.3176 26.389Z" fill="#00005B"/>
</g>
<defs>
<filter id="filter0_b_105_988" x="-10" y="-10" width="58" height="58" filterUnits="userSpaceOnUse" color-interpolation-filters="sRGB">
<feFlood flood-opacity="0" result="BackgroundImageFix"/>
<feGaussianBlur in="BackgroundImageFix" stdDeviation="5"/>
<feComposite in2="SourceAlpha" operator="in" result="effect1_backgroundBlur_105_988"/>
<feBlend mode="normal" in="SourceGraphic" in2="effect1_backgroundBlur_105_988" result="shape"/>
</filter>
</defs>
</svg>
