<svg width="54" height="54" viewBox="0 0 54 54" fill="none" xmlns="http://www.w3.org/2000/svg">
<rect width="54" height="54" rx="27" fill="#00005B" fill-opacity="0.05"/>
<path d="M29.52 25.1334L23.6866 20.9684C22.87 20.3851 21.785 20.3851 20.98 20.9684L15.1466 25.1334C14.5283 25.5768 14.1666 26.2768 14.1666 27.0351V36.3334C14.1666 36.9751 14.6916 37.5001 15.3333 37.5001H20V30.5001H24.6666V37.5001H29.3333C29.975 37.5001 30.5 36.9751 30.5 36.3334V27.0351C30.5 26.2768 30.1383 25.5768 29.52 25.1334Z" fill="#00005B"/>
<path d="M37.535 16.5H26.965C25.6933 16.5 24.6666 17.5267 24.6666 18.7983L24.7716 18.9033C24.865 18.9617 24.9583 19.0083 25.0516 19.0667L30.885 23.2317C31.7716 23.8617 32.4016 24.795 32.6816 25.8333H35.1666V28.1667H32.8333V30.5H35.1666V32.8333H32.8333V37.5H37.535C38.8066 37.5 39.8333 36.4733 39.8333 35.2017V18.7983C39.8333 17.5267 38.8066 16.5 37.535 16.5ZM35.1666 23.5H32.8333V21.1667H35.1666V23.5Z" fill="#00005B"/>
</svg>
