<svg width="54" height="54" viewBox="0 0 54 54" fill="none" xmlns="http://www.w3.org/2000/svg">
<rect width="54" height="54" rx="27" fill="#00005B" fill-opacity="0.05"/>
<path fill-rule="evenodd" clip-rule="evenodd" d="M21.5521 15.3337H32.4476C36.4154 15.3337 38.6554 17.5842 38.6671 21.5521V32.4487C38.6671 36.4154 36.4154 38.6671 32.4476 38.6671H21.5521C17.5842 38.6671 15.3337 36.4154 15.3337 32.4487V21.5521C15.3337 17.5842 17.5842 15.3337 21.5521 15.3337ZM27.0576 33.837C27.5605 33.837 27.9793 33.4637 28.026 32.962V21.0737C28.0726 20.712 27.8988 20.3492 27.5838 20.152C27.256 19.9537 26.8593 19.9537 26.5455 20.152C26.2293 20.3492 26.0555 20.712 26.0893 21.0737V32.962C26.1488 33.4637 26.5676 33.837 27.0576 33.837ZM32.4255 33.8371C32.9155 33.8371 33.3343 33.4637 33.3938 32.9621V29.1354C33.4276 28.7609 33.2538 28.4121 32.9376 28.2137C32.6238 28.0154 32.2271 28.0154 31.9005 28.2137C31.5843 28.4121 31.4105 28.7609 31.4571 29.1354V32.9621C31.5038 33.4637 31.9226 33.8371 32.4255 33.8371ZM22.5892 32.9621C22.5425 33.4637 22.1237 33.8371 21.6209 33.8371C21.1192 33.8371 20.6992 33.4637 20.6537 32.9621V24.9004C20.6187 24.5376 20.7925 24.1771 21.1087 23.9787C21.4225 23.7804 21.8204 23.7804 22.1354 23.9787C22.4492 24.1771 22.6254 24.5376 22.5892 24.9004V32.9621Z" fill="#00005B"/>
</svg>
