<svg width="54" height="54" viewBox="0 0 54 54" fill="none" xmlns="http://www.w3.org/2000/svg">
<rect width="54" height="54" rx="27" fill="#00005B" fill-opacity="0.05"/>
<path fill-rule="evenodd" clip-rule="evenodd" d="M31.8513 22.605C31.8513 25.3463 29.666 27.5444 26.9405 27.5444C24.215 27.5444 22.0297 25.3463 22.0297 22.605C22.0297 19.8627 24.215 17.6667 26.9405 17.6667C29.666 17.6667 31.8513 19.8627 31.8513 22.605ZM26.9405 36.3334C22.9375 36.3334 19.5195 35.6988 19.5195 33.1603C19.5195 30.6207 22.9156 29.963 26.9405 29.963C30.9436 29.963 34.3616 30.5976 34.3616 33.1372C34.3616 35.6757 30.9655 36.3334 26.9405 36.3334ZM33.95 22.6942C33.95 24.0916 33.5332 25.3934 32.8019 26.4757C32.7267 26.587 32.7936 26.7373 32.9262 26.7604C33.109 26.7919 33.2981 26.8098 33.4903 26.815C35.4072 26.8655 37.1278 25.6246 37.6031 23.7564C38.3071 20.9815 36.2398 18.4903 33.6073 18.4903C33.3211 18.4903 33.0474 18.5207 32.781 18.5754C32.7445 18.5838 32.7058 18.6006 32.6849 18.6332C32.6598 18.6731 32.6786 18.7267 32.7037 18.7614C33.4945 19.8762 33.95 21.2358 33.95 22.6942ZM37.1246 28.7647C38.4126 29.0179 39.2598 29.5349 39.6108 30.2861C39.9075 30.9029 39.9075 31.6184 39.6108 32.2342C39.0739 33.3994 37.3429 33.7734 36.6701 33.8701C36.5312 33.8911 36.4194 33.7703 36.4341 33.6306C36.7777 30.4017 34.0439 28.8708 33.3367 28.5189C33.3064 28.5031 33.3001 28.4789 33.3033 28.4642C33.3054 28.4537 33.3179 28.4369 33.3409 28.4338C34.8713 28.4054 36.5166 28.6155 37.1246 28.7647ZM20.5099 26.8149C20.7021 26.8096 20.8901 26.7928 21.074 26.7603C21.2066 26.7371 21.2735 26.5869 21.1983 26.4755C20.467 25.3933 20.0502 24.0915 20.0502 22.694C20.0502 21.2356 20.5057 19.876 21.2965 18.7612C21.3216 18.7265 21.3393 18.673 21.3153 18.633C21.2944 18.6015 21.2547 18.5836 21.2192 18.5752C20.9518 18.5206 20.6781 18.4901 20.3918 18.4901C17.7593 18.4901 15.692 20.9814 16.3971 23.7563C16.8724 25.6244 18.593 26.8653 20.5099 26.8149ZM20.6964 28.4636C20.6995 28.4794 20.6933 28.5025 20.664 28.5193C19.9557 28.8713 17.2219 30.4022 17.5656 33.6299C17.5802 33.7707 17.4695 33.8905 17.3306 33.8705C16.6578 33.7739 14.9269 33.3998 14.3899 32.2346C14.0922 31.6178 14.0922 30.9033 14.3899 30.2866C14.7409 29.5353 15.5871 29.0184 16.8751 28.7641C17.4841 28.616 19.1284 28.4058 20.6598 28.4342C20.6828 28.4373 20.6943 28.4541 20.6964 28.4636Z" fill="#00005B"/>
</svg>
